<mxfile host="app.diagrams.net" modified="2021-07-01T00:39:17.110Z" agent="5.0 (Windows NT 10.0; Win64; x64) AppleWebKit/537.36 (KHTML, like Gecko) Chrome/91.0.4472.124 Safari/537.36" etag="lDRvvQKWW25gbQYe6N_g" version="14.8.3" type="github">
  <diagram id="NrKJ2s9aNr0PMgB_rIyL" name="Page-1">
    <mxGraphModel dx="1102" dy="582" grid="1" gridSize="10" guides="1" tooltips="1" connect="1" arrows="1" fold="1" page="1" pageScale="1" pageWidth="827" pageHeight="1169" math="0" shadow="0">
      <root>
        <mxCell id="0" />
        <mxCell id="1" parent="0" />
        <mxCell id="JeyGk07UEmsRUKGqMQCq-1" value="" style="ellipse;html=1;shape=startState;fillColor=#000000;strokeColor=#ff0000;" vertex="1" parent="1">
          <mxGeometry x="384" y="40" width="30" height="30" as="geometry" />
        </mxCell>
        <mxCell id="JeyGk07UEmsRUKGqMQCq-2" value="" style="edgeStyle=orthogonalEdgeStyle;html=1;verticalAlign=bottom;endArrow=open;endSize=8;strokeColor=#ff0000;entryX=0.5;entryY=0;entryDx=0;entryDy=0;" edge="1" source="JeyGk07UEmsRUKGqMQCq-1" parent="1">
          <mxGeometry relative="1" as="geometry">
            <mxPoint x="399" y="130" as="targetPoint" />
          </mxGeometry>
        </mxCell>
        <mxCell id="JeyGk07UEmsRUKGqMQCq-5" value="" style="endArrow=classic;html=1;entryX=0.5;entryY=0;entryDx=0;entryDy=0;" edge="1" parent="1">
          <mxGeometry width="50" height="50" relative="1" as="geometry">
            <mxPoint x="400" y="180" as="sourcePoint" />
            <mxPoint x="399" y="240" as="targetPoint" />
          </mxGeometry>
        </mxCell>
        <mxCell id="JeyGk07UEmsRUKGqMQCq-7" value="" style="endArrow=classic;html=1;entryX=0.5;entryY=0;entryDx=0;entryDy=0;" edge="1" parent="1">
          <mxGeometry width="50" height="50" relative="1" as="geometry">
            <mxPoint x="400" y="290" as="sourcePoint" />
            <mxPoint x="399" y="360" as="targetPoint" />
          </mxGeometry>
        </mxCell>
        <mxCell id="JeyGk07UEmsRUKGqMQCq-8" value="" style="rhombus;whiteSpace=wrap;html=1;" vertex="1" parent="1">
          <mxGeometry x="359" y="470" width="80" height="80" as="geometry" />
        </mxCell>
        <mxCell id="JeyGk07UEmsRUKGqMQCq-9" value="" style="endArrow=classic;html=1;entryX=0.5;entryY=0;entryDx=0;entryDy=0;" edge="1" parent="1" target="JeyGk07UEmsRUKGqMQCq-8">
          <mxGeometry width="50" height="50" relative="1" as="geometry">
            <mxPoint x="400" y="410" as="sourcePoint" />
            <mxPoint x="450" y="360" as="targetPoint" />
          </mxGeometry>
        </mxCell>
        <mxCell id="JeyGk07UEmsRUKGqMQCq-10" value="اتصال ممکن نیست" style="endArrow=classic;html=1;exitX=1;exitY=0.5;exitDx=0;exitDy=0;" edge="1" parent="1" source="JeyGk07UEmsRUKGqMQCq-8">
          <mxGeometry width="50" height="50" relative="1" as="geometry">
            <mxPoint x="459" y="509.5" as="sourcePoint" />
            <mxPoint x="540" y="510" as="targetPoint" />
          </mxGeometry>
        </mxCell>
        <mxCell id="JeyGk07UEmsRUKGqMQCq-11" value="اتصال ممکی است" style="endArrow=classic;html=1;" edge="1" parent="1">
          <mxGeometry width="50" height="50" relative="1" as="geometry">
            <mxPoint x="400" y="550" as="sourcePoint" />
            <mxPoint x="399" y="620" as="targetPoint" />
          </mxGeometry>
        </mxCell>
        <mxCell id="JeyGk07UEmsRUKGqMQCq-15" value="" style="rhombus;whiteSpace=wrap;html=1;" vertex="1" parent="1">
          <mxGeometry x="359" y="730" width="80" height="80" as="geometry" />
        </mxCell>
        <mxCell id="JeyGk07UEmsRUKGqMQCq-16" value="" style="endArrow=classic;html=1;entryX=0.5;entryY=0;entryDx=0;entryDy=0;" edge="1" parent="1" target="JeyGk07UEmsRUKGqMQCq-15">
          <mxGeometry width="50" height="50" relative="1" as="geometry">
            <mxPoint x="400" y="670" as="sourcePoint" />
            <mxPoint x="450" y="620" as="targetPoint" />
          </mxGeometry>
        </mxCell>
        <mxCell id="JeyGk07UEmsRUKGqMQCq-17" value="شکست عملیات" style="endArrow=classic;html=1;" edge="1" parent="1">
          <mxGeometry width="50" height="50" relative="1" as="geometry">
            <mxPoint x="439" y="770" as="sourcePoint" />
            <mxPoint x="530" y="770" as="targetPoint" />
          </mxGeometry>
        </mxCell>
        <mxCell id="JeyGk07UEmsRUKGqMQCq-19" value="موفققیت عملیات" style="endArrow=classic;html=1;" edge="1" parent="1">
          <mxGeometry width="50" height="50" relative="1" as="geometry">
            <mxPoint x="400" y="810" as="sourcePoint" />
            <mxPoint x="400" y="890" as="targetPoint" />
          </mxGeometry>
        </mxCell>
        <mxCell id="JeyGk07UEmsRUKGqMQCq-21" value="" style="endArrow=classic;html=1;" edge="1" parent="1">
          <mxGeometry width="50" height="50" relative="1" as="geometry">
            <mxPoint x="400" y="940" as="sourcePoint" />
            <mxPoint x="400" y="1000" as="targetPoint" />
          </mxGeometry>
        </mxCell>
        <mxCell id="JeyGk07UEmsRUKGqMQCq-22" value="" style="ellipse;html=1;shape=endState;fillColor=#000000;strokeColor=#ff0000;" vertex="1" parent="1">
          <mxGeometry x="384" y="1000" width="30" height="30" as="geometry" />
        </mxCell>
        <mxCell id="JeyGk07UEmsRUKGqMQCq-25" value="&lt;span&gt;درخواست مشتری&lt;/span&gt;" style="rounded=1;whiteSpace=wrap;html=1;" vertex="1" parent="1">
          <mxGeometry x="339" y="130" width="120" height="50" as="geometry" />
        </mxCell>
        <mxCell id="JeyGk07UEmsRUKGqMQCq-27" value="&#xa;&#xa;&lt;span style=&quot;color: rgb(0, 0, 0); font-family: helvetica; font-size: 12px; font-style: normal; font-weight: 400; letter-spacing: normal; text-align: center; text-indent: 0px; text-transform: none; word-spacing: 0px; background-color: rgb(248, 249, 250); display: inline; float: none;&quot;&gt;دیافت درخواست&amp;nbsp;&lt;/span&gt;&#xa;&#xa;" style="rounded=1;whiteSpace=wrap;html=1;" vertex="1" parent="1">
          <mxGeometry x="339" y="240" width="120" height="50" as="geometry" />
        </mxCell>
        <mxCell id="JeyGk07UEmsRUKGqMQCq-28" value="&lt;span&gt;بررسی درخواست&lt;/span&gt;" style="rounded=1;whiteSpace=wrap;html=1;" vertex="1" parent="1">
          <mxGeometry x="339" y="360" width="120" height="50" as="geometry" />
        </mxCell>
        <mxCell id="JeyGk07UEmsRUKGqMQCq-29" value="&#xa;&#xa;&lt;span style=&quot;color: rgb(0, 0, 0); font-family: helvetica; font-size: 12px; font-style: normal; font-weight: 400; letter-spacing: normal; text-align: center; text-indent: 0px; text-transform: none; word-spacing: 0px; background-color: rgb(248, 249, 250); display: inline; float: none;&quot;&gt;تلاش مجدد&lt;/span&gt;&#xa;&#xa;" style="rounded=1;whiteSpace=wrap;html=1;" vertex="1" parent="1">
          <mxGeometry x="540" y="485" width="120" height="50" as="geometry" />
        </mxCell>
        <mxCell id="JeyGk07UEmsRUKGqMQCq-30" value="&lt;span&gt;اتصال به درگاه بانکی&lt;/span&gt;" style="rounded=1;whiteSpace=wrap;html=1;" vertex="1" parent="1">
          <mxGeometry x="339" y="620" width="120" height="50" as="geometry" />
        </mxCell>
        <mxCell id="JeyGk07UEmsRUKGqMQCq-32" value="&#xa;&#xa;&lt;span style=&quot;color: rgb(0, 0, 0); font-family: helvetica; font-size: 12px; font-style: normal; font-weight: 400; letter-spacing: normal; text-align: center; text-indent: 0px; text-transform: none; word-spacing: 0px; background-color: rgb(248, 249, 250); display: inline; float: none;&quot;&gt;پرداخت با موفقییت انجام شد&lt;/span&gt;&#xa;&#xa;" style="rounded=1;whiteSpace=wrap;html=1;" vertex="1" parent="1">
          <mxGeometry x="339" y="890" width="120" height="50" as="geometry" />
        </mxCell>
        <mxCell id="JeyGk07UEmsRUKGqMQCq-33" value="" style="rhombus;whiteSpace=wrap;html=1;" vertex="1" parent="1">
          <mxGeometry x="530" y="730" width="80" height="80" as="geometry" />
        </mxCell>
        <mxCell id="JeyGk07UEmsRUKGqMQCq-34" value="اانصراف" style="endArrow=classic;html=1;" edge="1" parent="1">
          <mxGeometry width="50" height="50" relative="1" as="geometry">
            <mxPoint x="610" y="770" as="sourcePoint" />
            <mxPoint x="690" y="770" as="targetPoint" />
          </mxGeometry>
        </mxCell>
        <mxCell id="JeyGk07UEmsRUKGqMQCq-35" value="عملیات ناموفق" style="rounded=1;whiteSpace=wrap;html=1;" vertex="1" parent="1">
          <mxGeometry x="690" y="745" width="120" height="50" as="geometry" />
        </mxCell>
        <mxCell id="JeyGk07UEmsRUKGqMQCq-38" value="درخواست مجدد عملیات" style="endArrow=none;html=1;" edge="1" parent="1">
          <mxGeometry width="50" height="50" relative="1" as="geometry">
            <mxPoint x="570" y="920" as="sourcePoint" />
            <mxPoint x="570" y="810" as="targetPoint" />
          </mxGeometry>
        </mxCell>
        <mxCell id="JeyGk07UEmsRUKGqMQCq-40" value="" style="endArrow=classic;html=1;" edge="1" parent="1">
          <mxGeometry width="50" height="50" relative="1" as="geometry">
            <mxPoint x="570" y="920" as="sourcePoint" />
            <mxPoint x="460" y="920" as="targetPoint" />
          </mxGeometry>
        </mxCell>
      </root>
    </mxGraphModel>
  </diagram>
</mxfile>
